G04*
G04 #@! TF.GenerationSoftware,Altium Limited,Altium Designer,18.1.7 (191)*
G04*
G04 Layer_Color=65535*
%FSLAX44Y44*%
%MOMM*%
G71*
G01*
G75*
%ADD10C,0.2540*%
%ADD11C,0.2000*%
%ADD12C,0.8000*%
D10*
X2485000Y1560000D02*
G03*
X2485000Y1560000I-70000J0D01*
G01*
X2685000Y2240000D02*
G03*
X2685000Y2240000I-70000J0D01*
G01*
Y2070000D02*
G03*
X2685000Y2070000I-70000J0D01*
G01*
X2687500Y1900000D02*
G03*
X2687500Y1900000I-70000J0D01*
G01*
X2685000Y1730000D02*
G03*
X2685000Y1730000I-70000J0D01*
G01*
Y1560000D02*
G03*
X2685000Y1560000I-70000J0D01*
G01*
X2485000Y2240000D02*
G03*
X2485000Y2240000I-70000J0D01*
G01*
Y1730000D02*
G03*
X2485000Y1730000I-70000J0D01*
G01*
Y2070000D02*
G03*
X2485000Y2070000I-70000J0D01*
G01*
Y1900000D02*
G03*
X2485000Y1900000I-70000J0D01*
G01*
X2015000Y1560000D02*
G03*
X2015000Y1560000I-70000J0D01*
G01*
X2215000Y2240000D02*
G03*
X2215000Y2240000I-70000J0D01*
G01*
Y2070000D02*
G03*
X2215000Y2070000I-70000J0D01*
G01*
X2217500Y1900000D02*
G03*
X2217500Y1900000I-70000J0D01*
G01*
X2215000Y1730000D02*
G03*
X2215000Y1730000I-70000J0D01*
G01*
Y1560000D02*
G03*
X2215000Y1560000I-70000J0D01*
G01*
X2015000Y2240000D02*
G03*
X2015000Y2240000I-70000J0D01*
G01*
Y1730000D02*
G03*
X2015000Y1730000I-70000J0D01*
G01*
Y2070000D02*
G03*
X2015000Y2070000I-70000J0D01*
G01*
Y1900000D02*
G03*
X2015000Y1900000I-70000J0D01*
G01*
X1545000Y1560000D02*
G03*
X1545000Y1560000I-70000J0D01*
G01*
X1745000Y2240000D02*
G03*
X1745000Y2240000I-70000J0D01*
G01*
Y2070000D02*
G03*
X1745000Y2070000I-70000J0D01*
G01*
X1747500Y1900000D02*
G03*
X1747500Y1900000I-70000J0D01*
G01*
X1745000Y1730000D02*
G03*
X1745000Y1730000I-70000J0D01*
G01*
Y1560000D02*
G03*
X1745000Y1560000I-70000J0D01*
G01*
X1545000Y2240000D02*
G03*
X1545000Y2240000I-70000J0D01*
G01*
Y1730000D02*
G03*
X1545000Y1730000I-70000J0D01*
G01*
Y2070000D02*
G03*
X1545000Y2070000I-70000J0D01*
G01*
Y1900000D02*
G03*
X1545000Y1900000I-70000J0D01*
G01*
X1075000Y1560000D02*
G03*
X1075000Y1560000I-70000J0D01*
G01*
X1275000Y2240000D02*
G03*
X1275000Y2240000I-70000J0D01*
G01*
Y2070000D02*
G03*
X1275000Y2070000I-70000J0D01*
G01*
X1277500Y1900000D02*
G03*
X1277500Y1900000I-70000J0D01*
G01*
X1275000Y1730000D02*
G03*
X1275000Y1730000I-70000J0D01*
G01*
Y1560000D02*
G03*
X1275000Y1560000I-70000J0D01*
G01*
X1075000Y2240000D02*
G03*
X1075000Y2240000I-70000J0D01*
G01*
Y1730000D02*
G03*
X1075000Y1730000I-70000J0D01*
G01*
Y2070000D02*
G03*
X1075000Y2070000I-70000J0D01*
G01*
Y1900000D02*
G03*
X1075000Y1900000I-70000J0D01*
G01*
X805000Y1560000D02*
G03*
X805000Y1560000I-70000J0D01*
G01*
Y1730000D02*
G03*
X805000Y1730000I-70000J0D01*
G01*
X807500Y1900000D02*
G03*
X807500Y1900000I-70000J0D01*
G01*
X805000Y2070000D02*
G03*
X805000Y2070000I-70000J0D01*
G01*
Y2240000D02*
G03*
X805000Y2240000I-70000J0D01*
G01*
X605000Y1560000D02*
G03*
X605000Y1560000I-70000J0D01*
G01*
Y1730000D02*
G03*
X605000Y1730000I-70000J0D01*
G01*
Y1900000D02*
G03*
X605000Y1900000I-70000J0D01*
G01*
Y2070000D02*
G03*
X605000Y2070000I-70000J0D01*
G01*
Y2240000D02*
G03*
X605000Y2240000I-70000J0D01*
G01*
X1467383Y1565697D02*
Y1560618D01*
Y1563158D01*
X1480078D01*
X1482617Y1560618D01*
Y1558079D01*
X1480078Y1555540D01*
X1467383Y1570775D02*
X1482617D01*
Y1580932D01*
X1469922Y1596167D02*
X1467383Y1593628D01*
Y1588549D01*
X1469922Y1586010D01*
X1480078D01*
X1482617Y1588549D01*
Y1593628D01*
X1480078Y1596167D01*
X1467383Y1611402D02*
Y1606324D01*
Y1608863D01*
X1480078D01*
X1482617Y1606324D01*
Y1603784D01*
X1480078Y1601245D01*
X1467383Y1616480D02*
X1482617D01*
Y1626637D01*
X1469922Y1641872D02*
X1467383Y1639333D01*
Y1634255D01*
X1469922Y1631715D01*
X1480078D01*
X1482617Y1634255D01*
Y1639333D01*
X1480078Y1641872D01*
X1467383Y1657107D02*
Y1652029D01*
Y1654568D01*
X1480078D01*
X1482617Y1652029D01*
Y1649490D01*
X1480078Y1646951D01*
X1467383Y1662186D02*
X1482617D01*
Y1672342D01*
X1469922Y1687577D02*
X1467383Y1685038D01*
Y1679960D01*
X1469922Y1677421D01*
X1480078D01*
X1482617Y1679960D01*
Y1685038D01*
X1480078Y1687577D01*
X1467383Y1702812D02*
Y1697734D01*
Y1700273D01*
X1480078D01*
X1482617Y1697734D01*
Y1695195D01*
X1480078Y1692656D01*
X1467383Y1707891D02*
X1482617D01*
Y1718047D01*
X1469922Y1733282D02*
X1467383Y1730743D01*
Y1725665D01*
X1469922Y1723126D01*
X1480078D01*
X1482617Y1725665D01*
Y1730743D01*
X1480078Y1733282D01*
D11*
X2435000Y1520000D02*
Y1600000D01*
X2635000Y2200000D02*
Y2280000D01*
Y2030000D02*
Y2110000D01*
X2637500Y1860000D02*
Y1940000D01*
X2635000Y1690000D02*
Y1770000D01*
Y1520000D02*
Y1600000D01*
X2435000Y2200000D02*
Y2280000D01*
Y1690000D02*
Y1770000D01*
Y2030000D02*
Y2110000D01*
Y1860000D02*
Y1940000D01*
X2475000Y1406004D02*
X2494501D01*
X2535000D02*
X2554501D01*
X2535000Y1334501D02*
X2554501D01*
X2475502D02*
X2495003D01*
X2475003D02*
Y1415502D01*
X2475000Y1416004D02*
X2494501D01*
X2535000Y1415502D02*
X2554501D01*
Y1334501D02*
Y1415502D01*
X2535499Y1058996D02*
X2555000D01*
X2475499D02*
X2495000D01*
X2475499Y1130499D02*
X2495000D01*
X2534997D02*
X2554498D01*
X2554997Y1049498D02*
Y1130499D01*
X2535499Y1048996D02*
X2555000D01*
X2475499Y1049498D02*
X2495000D01*
X2475499D02*
Y1130499D01*
X1965000Y1520000D02*
Y1600000D01*
X2165000Y2200000D02*
Y2280000D01*
Y2030000D02*
Y2110000D01*
X2167500Y1860000D02*
Y1940000D01*
X2165000Y1690000D02*
Y1770000D01*
Y1520000D02*
Y1600000D01*
X1965000Y2200000D02*
Y2280000D01*
Y1690000D02*
Y1770000D01*
Y2030000D02*
Y2110000D01*
Y1860000D02*
Y1940000D01*
X2005000Y1406004D02*
X2024501D01*
X2065000D02*
X2084501D01*
X2065000Y1334501D02*
X2084501D01*
X2005502D02*
X2025003D01*
X2005003D02*
Y1415502D01*
X2005000Y1416004D02*
X2024501D01*
X2065000Y1415502D02*
X2084501D01*
Y1334501D02*
Y1415502D01*
X2065499Y1058996D02*
X2085000D01*
X2005499D02*
X2025000D01*
X2005499Y1130499D02*
X2025000D01*
X2064997D02*
X2084498D01*
X2084997Y1049498D02*
Y1130499D01*
X2065499Y1048996D02*
X2085000D01*
X2005499Y1049498D02*
X2025000D01*
X2005499D02*
Y1130499D01*
X1495000Y1520000D02*
Y1600000D01*
X1695000Y2200000D02*
Y2280000D01*
Y2030000D02*
Y2110000D01*
X1697500Y1860000D02*
Y1940000D01*
X1695000Y1690000D02*
Y1770000D01*
Y1520000D02*
Y1600000D01*
X1495000Y2200000D02*
Y2280000D01*
Y1690000D02*
Y1770000D01*
Y2030000D02*
Y2110000D01*
Y1860000D02*
Y1940000D01*
X1535000Y1406004D02*
X1554501D01*
X1595000D02*
X1614501D01*
X1595000Y1334501D02*
X1614501D01*
X1535502D02*
X1555003D01*
X1535003D02*
Y1415502D01*
X1535000Y1416004D02*
X1554501D01*
X1595000Y1415502D02*
X1614501D01*
Y1334501D02*
Y1415502D01*
X1595499Y1058996D02*
X1615000D01*
X1535499D02*
X1555000D01*
X1535499Y1130499D02*
X1555000D01*
X1594997D02*
X1614498D01*
X1614997Y1049498D02*
Y1130499D01*
X1595499Y1048996D02*
X1615000D01*
X1535499Y1049498D02*
X1555000D01*
X1535499D02*
Y1130499D01*
X1025000Y1520000D02*
Y1600000D01*
X1225000Y2200000D02*
Y2280000D01*
Y2030000D02*
Y2110000D01*
X1227500Y1860000D02*
Y1940000D01*
X1225000Y1690000D02*
Y1770000D01*
Y1520000D02*
Y1600000D01*
X1025000Y2200000D02*
Y2280000D01*
Y1690000D02*
Y1770000D01*
Y2030000D02*
Y2110000D01*
Y1860000D02*
Y1940000D01*
X1065000Y1406004D02*
X1084501D01*
X1125000D02*
X1144501D01*
X1125000Y1334501D02*
X1144501D01*
X1065502D02*
X1085003D01*
X1065003D02*
Y1415502D01*
X1065000Y1416004D02*
X1084501D01*
X1125000Y1415502D02*
X1144501D01*
Y1334501D02*
Y1415502D01*
X1125499Y1058996D02*
X1145000D01*
X1065499D02*
X1085000D01*
X1065499Y1130499D02*
X1085000D01*
X1124997D02*
X1144498D01*
X1144997Y1049498D02*
Y1130499D01*
X1125499Y1048996D02*
X1145000D01*
X1065499Y1049498D02*
X1085000D01*
X1065499D02*
Y1130499D01*
X655499Y1058996D02*
X675000D01*
X595499D02*
X615000D01*
X595499Y1130499D02*
X615000D01*
X654997D02*
X674498D01*
X674997Y1049498D02*
Y1130499D01*
X655499Y1048996D02*
X675000D01*
X595499Y1049498D02*
X615000D01*
X595499D02*
Y1130499D01*
X595000Y1406004D02*
X614501D01*
X655000D02*
X674501D01*
X655000Y1334501D02*
X674501D01*
X595502D02*
X615003D01*
X595003D02*
Y1415502D01*
X595000Y1416004D02*
X614501D01*
X655000Y1415502D02*
X674501D01*
Y1334501D02*
Y1415502D01*
X755000Y1520000D02*
Y1600000D01*
Y1690000D02*
Y1770000D01*
X757500Y1860000D02*
Y1940000D01*
X755000Y2030000D02*
Y2110000D01*
Y2200000D02*
Y2280000D01*
X555000Y1520000D02*
Y1600000D01*
Y1690000D02*
Y1770000D01*
Y1860000D02*
Y1940000D01*
Y2030000D02*
Y2110000D01*
Y2200000D02*
Y2280000D01*
D12*
X2760000Y1089990D02*
X2799987D01*
X355000D02*
X394987D01*
X355000Y1234990D02*
X394987D01*
X374994Y1254984D02*
Y1214997D01*
X2760000Y1234990D02*
X2799987D01*
X2779994Y1254984D02*
Y1214997D01*
M02*
