G04*
G04 #@! TF.GenerationSoftware,Altium Limited,Altium Designer,18.1.7 (191)*
G04*
G04 Layer_Color=8388736*
%FSLAX44Y44*%
%MOMM*%
G71*
G01*
G75*
%ADD14R,1.8032X2.0032*%
%ADD15R,8.2032X8.2032*%
%ADD16R,0.2032X0.2032*%
%ADD17C,2.2032*%
%ADD18O,2.6032X4.2032*%
%ADD19O,2.6032X2.8032*%
%ADD20C,0.2032*%
D14*
X2461000Y2380000D02*
D03*
X2489000D02*
D03*
X2401000D02*
D03*
X2429000D02*
D03*
X2341000D02*
D03*
X2369000D02*
D03*
X2541000D02*
D03*
X2569000D02*
D03*
X2601000D02*
D03*
X2629000D02*
D03*
X2661000D02*
D03*
X2689000D02*
D03*
X1991000D02*
D03*
X2019000D02*
D03*
X1931000D02*
D03*
X1959000D02*
D03*
X1871000D02*
D03*
X1899000D02*
D03*
X2071000D02*
D03*
X2099000D02*
D03*
X2131000D02*
D03*
X2159000D02*
D03*
X2191000D02*
D03*
X2219000D02*
D03*
X1521000D02*
D03*
X1549000D02*
D03*
X1461000D02*
D03*
X1489000D02*
D03*
X1401000D02*
D03*
X1429000D02*
D03*
X1601000D02*
D03*
X1629000D02*
D03*
X1661000D02*
D03*
X1689000D02*
D03*
X1721000D02*
D03*
X1749000D02*
D03*
X1051000D02*
D03*
X1079000D02*
D03*
X991000D02*
D03*
X1019000D02*
D03*
X931000D02*
D03*
X959000D02*
D03*
X1131000D02*
D03*
X1159000D02*
D03*
X1191000D02*
D03*
X1219000D02*
D03*
X1251000D02*
D03*
X1279000D02*
D03*
X781000D02*
D03*
X809000D02*
D03*
X721000D02*
D03*
X749000D02*
D03*
X661000D02*
D03*
X689000D02*
D03*
X461000D02*
D03*
X489000D02*
D03*
X521000D02*
D03*
X549000D02*
D03*
X581000D02*
D03*
X609000D02*
D03*
D15*
X490000Y1090000D02*
D03*
X490000Y1235000D02*
D03*
X2660000D02*
D03*
Y1090000D02*
D03*
D16*
X2790000Y2420000D02*
D03*
Y960000D02*
D03*
X360000D02*
D03*
Y2420000D02*
D03*
D17*
X2452500Y1560000D02*
D03*
X2377500D02*
D03*
X2652500Y2240000D02*
D03*
X2577500D02*
D03*
X2652500Y2070000D02*
D03*
X2577500D02*
D03*
X2655000Y1900000D02*
D03*
X2580000D02*
D03*
X2652500Y1730000D02*
D03*
X2577500D02*
D03*
X2652500Y1560000D02*
D03*
X2577500D02*
D03*
X2452500Y2240000D02*
D03*
X2377500D02*
D03*
X2452500Y1730000D02*
D03*
X2377500D02*
D03*
X2452500Y2070000D02*
D03*
X2377500D02*
D03*
X2452500Y1900000D02*
D03*
X2377500D02*
D03*
X1982500Y1560000D02*
D03*
X1907500D02*
D03*
X2182500Y2240000D02*
D03*
X2107500D02*
D03*
X2182500Y2070000D02*
D03*
X2107500D02*
D03*
X2185000Y1900000D02*
D03*
X2110000D02*
D03*
X2182500Y1730000D02*
D03*
X2107500D02*
D03*
X2182500Y1560000D02*
D03*
X2107500D02*
D03*
X1982500Y2240000D02*
D03*
X1907500D02*
D03*
X1982500Y1730000D02*
D03*
X1907500D02*
D03*
X1982500Y2070000D02*
D03*
X1907500D02*
D03*
X1982500Y1900000D02*
D03*
X1907500D02*
D03*
X1512500Y1560000D02*
D03*
X1437500D02*
D03*
X1712500Y2240000D02*
D03*
X1637500D02*
D03*
X1712500Y2070000D02*
D03*
X1637500D02*
D03*
X1715000Y1900000D02*
D03*
X1640000D02*
D03*
X1712500Y1730000D02*
D03*
X1637500D02*
D03*
X1712500Y1560000D02*
D03*
X1637500D02*
D03*
X1512500Y2240000D02*
D03*
X1437500D02*
D03*
X1512500Y1730000D02*
D03*
X1437500D02*
D03*
X1512500Y2070000D02*
D03*
X1437500D02*
D03*
X1512500Y1900000D02*
D03*
X1437500D02*
D03*
X1042500Y1560000D02*
D03*
X967500D02*
D03*
X1242500Y2240000D02*
D03*
X1167500D02*
D03*
X1242500Y2070000D02*
D03*
X1167500D02*
D03*
X1245000Y1900000D02*
D03*
X1170000D02*
D03*
X1242500Y1730000D02*
D03*
X1167500D02*
D03*
X1242500Y1560000D02*
D03*
X1167500D02*
D03*
X1042500Y2240000D02*
D03*
X967500D02*
D03*
X1042500Y1730000D02*
D03*
X967500D02*
D03*
X1042500Y2070000D02*
D03*
X967500D02*
D03*
X1042500Y1900000D02*
D03*
X967500D02*
D03*
X772500Y1560000D02*
D03*
X697500D02*
D03*
X772500Y1730000D02*
D03*
X697500D02*
D03*
X775000Y1900000D02*
D03*
X700000D02*
D03*
X772500Y2070000D02*
D03*
X697500D02*
D03*
X772500Y2240000D02*
D03*
X697500D02*
D03*
X572500Y1560000D02*
D03*
X497500D02*
D03*
X572500Y1730000D02*
D03*
X497500D02*
D03*
X572500Y1900000D02*
D03*
X497500D02*
D03*
X572500Y2070000D02*
D03*
X497500D02*
D03*
X572500Y2240000D02*
D03*
X497500D02*
D03*
D18*
X2515000Y1340000D02*
D03*
Y1125000D02*
D03*
X2045000Y1340000D02*
D03*
Y1125000D02*
D03*
X1575000Y1340000D02*
D03*
Y1125000D02*
D03*
X1105000Y1340000D02*
D03*
Y1125000D02*
D03*
X635000D02*
D03*
Y1340000D02*
D03*
D19*
X2515000Y1410000D02*
D03*
Y1055000D02*
D03*
X2045000Y1410000D02*
D03*
Y1055000D02*
D03*
X1575000Y1410000D02*
D03*
Y1055000D02*
D03*
X1105000Y1410000D02*
D03*
Y1055000D02*
D03*
X635000D02*
D03*
Y1410000D02*
D03*
D20*
X2540000Y1305000D02*
D03*
X2455000Y1380000D02*
D03*
X2070000Y1305000D02*
D03*
X1985000Y1380000D02*
D03*
X1600000Y1305000D02*
D03*
X1515000Y1380000D02*
D03*
X1130000Y1305000D02*
D03*
X1045000Y1380000D02*
D03*
X575000D02*
D03*
X660000Y1305000D02*
D03*
M02*
