M48
;Layer_Color=9474304
;FILE_FORMAT=4:4
METRIC,LZ
;TYPE=PLATED
T1F00S00C1.0000
T3F00S00C5.0000
;TYPE=NON_PLATED
T4F00S00C5.2000
%
T01
X024525Y0156
X025775
X026525
X023775
X021825
X021075
X019825
X019075
X017125
X016375
X015125
X014375
X012425
X011675
X010425
X009675
X007725
X006975
X005725
X004975
Y0173
X005725
X006975
X007725
X00775Y019
X007
X005725Y019
X004975
X009675
X010425
X0117Y019
X011675Y0173
X010425
X009675
X012425
X01245Y019
X014375Y019
X015125
Y0173
X014375
X016375
X017125
X01715Y019
X0164
X019075Y019
X019825
Y0173
X019075
X021075
X021825
X02185Y019
X0211
X023775Y019
Y0173
X024525
X025775
X026525
X02655Y019
X0258
X024525Y019
Y0207
X025775
X026525
Y0224
X025775
X024525
X023775
Y0207
X021825
X021075
Y0224
X021825
X019825
X019075
Y0207
X019825
X017125
X016375
Y0224
X017125
X015125
X014375
Y0207
X015125
X012425
Y0224
X011675
X010425
X009675
Y0207
X010425
X011675
X007725
X006975
X005725
X004975
Y0224
X005725
X006975
X007725
T03
X0049Y0109
X0266
Y01235
X0049
T04
X0036Y0096
X0279
X0036Y0242
X0279
M30
