G04*
G04 #@! TF.GenerationSoftware,Altium Limited,Altium Designer,18.1.7 (191)*
G04*
G04 Layer_Physical_Order=1*
G04 Layer_Color=255*
%FSLAX44Y44*%
%MOMM*%
G71*
G01*
G75*
%ADD13R,1.6000X1.8000*%
%ADD21R,8.0000X8.0000*%
%ADD22C,2.0000*%
%ADD23O,2.4000X4.0000*%
%ADD24O,2.4000X2.6000*%
G36*
X2345000Y2430000D02*
Y2395000D01*
X2330000Y2395000D01*
Y2385000D01*
X2340000D01*
Y2375000D01*
X2330000D01*
Y2365000D01*
X2345000D01*
Y2310000D01*
X2395000Y2260000D01*
Y1500000D01*
X2435000Y1460000D01*
Y1290000D01*
X2650000D01*
X2715000Y1290000D01*
X2715000Y1185000D01*
X2315000Y1185000D01*
Y1185000D01*
X1845000Y1185000D01*
Y1185000D01*
X1375000Y1185000D01*
Y1185000D01*
X905000Y1185000D01*
Y1185000D01*
X435000Y1185000D01*
X435000Y2430000D01*
X465000Y2430000D01*
Y2395000D01*
X450000Y2395000D01*
Y2385000D01*
X460000D01*
Y2375000D01*
X450000D01*
Y2365000D01*
X465000D01*
Y2310000D01*
X515000Y2260000D01*
Y1500000D01*
X555000Y1460000D01*
Y1290000D01*
X770000D01*
X905000Y1425000D01*
X905000Y2430000D01*
X935000Y2430000D01*
Y2395000D01*
X920000Y2395000D01*
Y2385000D01*
X930000D01*
Y2375000D01*
X920000D01*
Y2365000D01*
X935000D01*
Y2310000D01*
X985000Y2260000D01*
Y1500000D01*
X1025000Y1460000D01*
Y1290000D01*
X1240000D01*
X1375000Y1425000D01*
X1375000Y2430000D01*
X1405000Y2430000D01*
Y2395000D01*
X1390000Y2395000D01*
Y2385000D01*
X1400000D01*
Y2375000D01*
X1390000D01*
Y2365000D01*
X1405000D01*
Y2310000D01*
X1455000Y2260000D01*
Y1500000D01*
X1495000Y1460000D01*
Y1290000D01*
X1710000D01*
X1845000Y1425000D01*
X1845000Y2430000D01*
X1875000Y2430000D01*
Y2395000D01*
X1860000Y2395000D01*
Y2385000D01*
X1870000D01*
Y2375000D01*
X1860000D01*
Y2365000D01*
X1875000D01*
Y2310000D01*
X1925000Y2260000D01*
Y1500000D01*
X1965000Y1460000D01*
Y1290000D01*
X2180000D01*
X2315000Y1425000D01*
X2315000Y2430000D01*
X2345000Y2430000D01*
D02*
G37*
G36*
X2660000Y2395000D02*
X2650000D01*
Y2385000D01*
X2660000D01*
Y2375000D01*
X2650000D01*
Y2365000D01*
X2660000D01*
Y2310000D01*
X2660000D01*
X2650000Y2300000D01*
X2630000D01*
Y2365000D01*
X2640000D01*
Y2375000D01*
X2630000D01*
Y2385000D01*
X2640000D01*
Y2395000D01*
X2630000D01*
Y2430000D01*
X2660000D01*
Y2395000D01*
D02*
G37*
G36*
X2605000D02*
X2590000D01*
Y2385000D01*
X2600000D01*
Y2375000D01*
X2590000D01*
Y2365000D01*
X2605000D01*
Y2300000D01*
X2565000D01*
Y2365000D01*
X2580000D01*
Y2375000D01*
X2570000D01*
Y2385000D01*
X2580000D01*
Y2395000D01*
X2565000Y2395000D01*
Y2430000D01*
X2605000Y2430000D01*
Y2395000D01*
D02*
G37*
G36*
X2465000D02*
X2450000D01*
Y2385000D01*
X2460000D01*
Y2375000D01*
X2450000D01*
Y2365000D01*
X2465000D01*
Y2300000D01*
X2425000D01*
Y2365000D01*
X2440000D01*
Y2375000D01*
X2430000D01*
Y2385000D01*
X2440000D01*
Y2395000D01*
X2425000Y2395000D01*
Y2430000D01*
X2465000Y2430000D01*
Y2395000D01*
D02*
G37*
G36*
X2400000D02*
X2390000D01*
Y2385000D01*
X2400000D01*
Y2375000D01*
X2390000D01*
Y2365000D01*
X2400000D01*
Y2300000D01*
X2380000D01*
X2370000Y2310000D01*
X2370000D01*
Y2365000D01*
X2380000D01*
Y2375000D01*
X2370000D01*
Y2385000D01*
X2380000D01*
Y2395000D01*
X2370000D01*
Y2430000D01*
X2400000D01*
Y2395000D01*
D02*
G37*
G36*
X2190000D02*
X2180000D01*
Y2385000D01*
X2190000D01*
Y2375000D01*
X2180000D01*
Y2365000D01*
X2190000D01*
Y2310000D01*
X2190000D01*
X2180000Y2300000D01*
X2160000D01*
Y2365000D01*
X2170000D01*
Y2375000D01*
X2160000D01*
Y2385000D01*
X2170000D01*
Y2395000D01*
X2160000D01*
Y2430000D01*
X2190000D01*
Y2395000D01*
D02*
G37*
G36*
X2135000D02*
X2120000D01*
Y2385000D01*
X2130000D01*
Y2375000D01*
X2120000D01*
Y2365000D01*
X2135000D01*
Y2300000D01*
X2095000D01*
Y2365000D01*
X2110000D01*
Y2375000D01*
X2100000D01*
Y2385000D01*
X2110000D01*
Y2395000D01*
X2095000Y2395000D01*
Y2430000D01*
X2135000Y2430000D01*
Y2395000D01*
D02*
G37*
G36*
X1995000D02*
X1980000D01*
Y2385000D01*
X1990000D01*
Y2375000D01*
X1980000D01*
Y2365000D01*
X1995000D01*
Y2300000D01*
X1955000D01*
Y2365000D01*
X1970000D01*
Y2375000D01*
X1960000D01*
Y2385000D01*
X1970000D01*
Y2395000D01*
X1955000Y2395000D01*
Y2430000D01*
X1995000Y2430000D01*
Y2395000D01*
D02*
G37*
G36*
X1930000D02*
X1920000D01*
Y2385000D01*
X1930000D01*
Y2375000D01*
X1920000D01*
Y2365000D01*
X1930000D01*
Y2300000D01*
X1910000D01*
X1900000Y2310000D01*
X1900000D01*
Y2365000D01*
X1910000D01*
Y2375000D01*
X1900000D01*
Y2385000D01*
X1910000D01*
Y2395000D01*
X1900000D01*
Y2430000D01*
X1930000D01*
Y2395000D01*
D02*
G37*
G36*
X1720000D02*
X1710000D01*
Y2385000D01*
X1720000D01*
Y2375000D01*
X1710000D01*
Y2365000D01*
X1720000D01*
Y2310000D01*
X1720000D01*
X1710000Y2300000D01*
X1690000D01*
Y2365000D01*
X1700000D01*
Y2375000D01*
X1690000D01*
Y2385000D01*
X1700000D01*
Y2395000D01*
X1690000D01*
Y2430000D01*
X1720000D01*
Y2395000D01*
D02*
G37*
G36*
X1665000D02*
X1650000D01*
Y2385000D01*
X1660000D01*
Y2375000D01*
X1650000D01*
Y2365000D01*
X1665000D01*
Y2300000D01*
X1625000D01*
Y2365000D01*
X1640000D01*
Y2375000D01*
X1630000D01*
Y2385000D01*
X1640000D01*
Y2395000D01*
X1625000Y2395000D01*
Y2430000D01*
X1665000Y2430000D01*
Y2395000D01*
D02*
G37*
G36*
X1525000D02*
X1510000D01*
Y2385000D01*
X1520000D01*
Y2375000D01*
X1510000D01*
Y2365000D01*
X1525000D01*
Y2300000D01*
X1485000D01*
Y2365000D01*
X1500000D01*
Y2375000D01*
X1490000D01*
Y2385000D01*
X1500000D01*
Y2395000D01*
X1485000Y2395000D01*
Y2430000D01*
X1525000Y2430000D01*
Y2395000D01*
D02*
G37*
G36*
X1460000D02*
X1450000D01*
Y2385000D01*
X1460000D01*
Y2375000D01*
X1450000D01*
Y2365000D01*
X1460000D01*
Y2300000D01*
X1440000D01*
X1430000Y2310000D01*
X1430000D01*
Y2365000D01*
X1440000D01*
Y2375000D01*
X1430000D01*
Y2385000D01*
X1440000D01*
Y2395000D01*
X1430000D01*
Y2430000D01*
X1460000D01*
Y2395000D01*
D02*
G37*
G36*
X1250000D02*
X1240000D01*
Y2385000D01*
X1250000D01*
Y2375000D01*
X1240000D01*
Y2365000D01*
X1250000D01*
Y2310000D01*
X1250000D01*
X1240000Y2300000D01*
X1220000D01*
Y2365000D01*
X1230000D01*
Y2375000D01*
X1220000D01*
Y2385000D01*
X1230000D01*
Y2395000D01*
X1220000D01*
Y2430000D01*
X1250000D01*
Y2395000D01*
D02*
G37*
G36*
X1195000D02*
X1180000D01*
Y2385000D01*
X1190000D01*
Y2375000D01*
X1180000D01*
Y2365000D01*
X1195000D01*
Y2300000D01*
X1155000D01*
Y2365000D01*
X1170000D01*
Y2375000D01*
X1160000D01*
Y2385000D01*
X1170000D01*
Y2395000D01*
X1155000Y2395000D01*
Y2430000D01*
X1195000Y2430000D01*
Y2395000D01*
D02*
G37*
G36*
X1055000D02*
X1040000D01*
Y2385000D01*
X1050000D01*
Y2375000D01*
X1040000D01*
Y2365000D01*
X1055000D01*
Y2300000D01*
X1015000D01*
Y2365000D01*
X1030000D01*
Y2375000D01*
X1020000D01*
Y2385000D01*
X1030000D01*
Y2395000D01*
X1015000Y2395000D01*
Y2430000D01*
X1055000Y2430000D01*
Y2395000D01*
D02*
G37*
G36*
X990000D02*
X980000D01*
Y2385000D01*
X990000D01*
Y2375000D01*
X980000D01*
Y2365000D01*
X990000D01*
Y2300000D01*
X970000D01*
X960000Y2310000D01*
X960000D01*
Y2365000D01*
X970000D01*
Y2375000D01*
X960000D01*
Y2385000D01*
X970000D01*
Y2395000D01*
X960000D01*
Y2430000D01*
X990000D01*
Y2395000D01*
D02*
G37*
G36*
X780000D02*
X770000D01*
Y2385000D01*
X780000D01*
Y2375000D01*
X770000D01*
Y2365000D01*
X780000D01*
Y2310000D01*
X780000D01*
X770000Y2300000D01*
X750000D01*
Y2365000D01*
X760000D01*
Y2375000D01*
X750000D01*
Y2385000D01*
X760000D01*
Y2395000D01*
X750000D01*
Y2430000D01*
X780000D01*
Y2395000D01*
D02*
G37*
G36*
X725000D02*
X710000D01*
Y2385000D01*
X720000D01*
Y2375000D01*
X710000D01*
Y2365000D01*
X725000D01*
Y2300000D01*
X685000D01*
Y2365000D01*
X700000D01*
Y2375000D01*
X690000D01*
Y2385000D01*
X700000D01*
Y2395000D01*
X685000Y2395000D01*
Y2430000D01*
X725000Y2430000D01*
Y2395000D01*
D02*
G37*
G36*
X585000D02*
X570000D01*
Y2385000D01*
X580000D01*
Y2375000D01*
X570000D01*
Y2365000D01*
X585000D01*
Y2300000D01*
X545000D01*
Y2365000D01*
X560000D01*
Y2375000D01*
X550000D01*
Y2385000D01*
X560000D01*
Y2395000D01*
X545000Y2395000D01*
Y2430000D01*
X585000Y2430000D01*
Y2395000D01*
D02*
G37*
G36*
X520000D02*
X510000D01*
Y2385000D01*
X520000D01*
Y2375000D01*
X510000D01*
Y2365000D01*
X520000D01*
Y2300000D01*
X500000D01*
X490000Y2310000D01*
X490000D01*
Y2365000D01*
X500000D01*
Y2375000D01*
X490000D01*
Y2385000D01*
X500000D01*
Y2395000D01*
X490000D01*
Y2430000D01*
X520000D01*
Y2395000D01*
D02*
G37*
G36*
X2540000D02*
X2530000D01*
Y2385000D01*
X2535000D01*
Y2375000D01*
X2530000D01*
Y2365000D01*
X2535000D01*
Y2260000D01*
X2595000D01*
Y1520000D01*
X2435000D01*
Y2260000D01*
X2495000D01*
Y2365000D01*
X2500000D01*
Y2375000D01*
X2490000D01*
Y2385000D01*
X2500000D01*
Y2395000D01*
X2490000D01*
Y2430000D01*
X2540000D01*
Y2395000D01*
D02*
G37*
G36*
X2070000D02*
X2060000D01*
Y2385000D01*
X2065000D01*
Y2375000D01*
X2060000D01*
Y2365000D01*
X2065000D01*
Y2260000D01*
X2125000D01*
Y1520000D01*
X1965000D01*
Y2260000D01*
X2025000D01*
Y2365000D01*
X2030000D01*
Y2375000D01*
X2020000D01*
Y2385000D01*
X2030000D01*
Y2395000D01*
X2020000D01*
Y2430000D01*
X2070000D01*
Y2395000D01*
D02*
G37*
G36*
X1600000D02*
X1590000D01*
Y2385000D01*
X1595000D01*
Y2375000D01*
X1590000D01*
Y2365000D01*
X1595000D01*
Y2260000D01*
X1655000D01*
Y1520000D01*
X1495000D01*
Y2260000D01*
X1555000D01*
Y2365000D01*
X1560000D01*
Y2375000D01*
X1550000D01*
Y2385000D01*
X1560000D01*
Y2395000D01*
X1550000D01*
Y2430000D01*
X1600000D01*
Y2395000D01*
D02*
G37*
G36*
X1130000D02*
X1120000D01*
Y2385000D01*
X1125000D01*
Y2375000D01*
X1120000D01*
Y2365000D01*
X1125000D01*
Y2260000D01*
X1185000D01*
Y1520000D01*
X1025000D01*
Y2260000D01*
X1085000D01*
Y2365000D01*
X1090000D01*
Y2375000D01*
X1080000D01*
Y2385000D01*
X1090000D01*
Y2395000D01*
X1080000D01*
Y2430000D01*
X1130000D01*
Y2395000D01*
D02*
G37*
G36*
X660000D02*
X650000D01*
Y2385000D01*
X655000D01*
Y2375000D01*
X650000D01*
Y2365000D01*
X655000D01*
Y2260000D01*
X715000D01*
Y1520000D01*
X555000D01*
Y2260000D01*
X615000D01*
Y2365000D01*
X620000D01*
Y2375000D01*
X610000D01*
Y2385000D01*
X620000D01*
Y2395000D01*
X610000D01*
Y2430000D01*
X660000D01*
Y2395000D01*
D02*
G37*
G36*
X2715000Y1425000D02*
X2610000Y1320000D01*
X2475000D01*
Y1430000D01*
X2565000D01*
X2635000Y1500000D01*
Y2260000D01*
X2690000Y2315000D01*
Y2365000D01*
X2700000D01*
Y2375000D01*
X2690000D01*
Y2385000D01*
X2700000D01*
Y2395000D01*
X2690000D01*
Y2430000D01*
X2715000D01*
Y1425000D01*
D02*
G37*
G36*
X2245000D02*
X2140000Y1320000D01*
X2005000D01*
Y1430000D01*
X2095000D01*
X2165000Y1500000D01*
Y2260000D01*
X2220000Y2315000D01*
Y2365000D01*
X2230000D01*
Y2375000D01*
X2220000D01*
Y2385000D01*
X2230000D01*
Y2395000D01*
X2220000D01*
Y2430000D01*
X2245000D01*
Y1425000D01*
D02*
G37*
G36*
X1775000D02*
X1670000Y1320000D01*
X1535000D01*
Y1430000D01*
X1625000D01*
X1695000Y1500000D01*
Y2260000D01*
X1750000Y2315000D01*
Y2365000D01*
X1760000D01*
Y2375000D01*
X1750000D01*
Y2385000D01*
X1760000D01*
Y2395000D01*
X1750000D01*
Y2430000D01*
X1775000D01*
Y1425000D01*
D02*
G37*
G36*
X1305000D02*
X1200000Y1320000D01*
X1065000D01*
Y1430000D01*
X1155000D01*
X1225000Y1500000D01*
Y2260000D01*
X1280000Y2315000D01*
Y2365000D01*
X1290000D01*
Y2375000D01*
X1280000D01*
Y2385000D01*
X1290000D01*
Y2395000D01*
X1280000D01*
Y2430000D01*
X1305000D01*
Y1425000D01*
D02*
G37*
G36*
X835000D02*
X730000Y1320000D01*
X595000D01*
Y1430000D01*
X685000D01*
X755000Y1500000D01*
Y2260000D01*
X810000Y2315000D01*
Y2365000D01*
X820000D01*
Y2375000D01*
X810000D01*
Y2385000D01*
X820000D01*
Y2395000D01*
X810000D01*
Y2430000D01*
X835000D01*
Y1425000D01*
D02*
G37*
G36*
X2715000Y1050000D02*
X2715000D01*
X2715000Y1032857D01*
Y1030000D01*
X2715000D01*
Y1030000D01*
X2635000Y950000D01*
X515000D01*
X435000Y1030000D01*
Y1030000D01*
Y1050000D01*
Y1150000D01*
X2315000D01*
X2715000Y1150000D01*
Y1050000D01*
D02*
G37*
D13*
X2461000Y2380000D02*
D03*
X2489000D02*
D03*
X2401000D02*
D03*
X2429000D02*
D03*
X2341000D02*
D03*
X2369000D02*
D03*
X2541000D02*
D03*
X2569000D02*
D03*
X2601000D02*
D03*
X2629000D02*
D03*
X2661000D02*
D03*
X2689000D02*
D03*
X1991000D02*
D03*
X2019000D02*
D03*
X1931000D02*
D03*
X1959000D02*
D03*
X1871000D02*
D03*
X1899000D02*
D03*
X2071000D02*
D03*
X2099000D02*
D03*
X2131000D02*
D03*
X2159000D02*
D03*
X2191000D02*
D03*
X2219000D02*
D03*
X1521000D02*
D03*
X1549000D02*
D03*
X1461000D02*
D03*
X1489000D02*
D03*
X1401000D02*
D03*
X1429000D02*
D03*
X1601000D02*
D03*
X1629000D02*
D03*
X1661000D02*
D03*
X1689000D02*
D03*
X1721000D02*
D03*
X1749000D02*
D03*
X1051000D02*
D03*
X1079000D02*
D03*
X991000D02*
D03*
X1019000D02*
D03*
X931000D02*
D03*
X959000D02*
D03*
X1131000D02*
D03*
X1159000D02*
D03*
X1191000D02*
D03*
X1219000D02*
D03*
X1251000D02*
D03*
X1279000D02*
D03*
X781000D02*
D03*
X809000D02*
D03*
X721000D02*
D03*
X749000D02*
D03*
X661000D02*
D03*
X689000D02*
D03*
X461000D02*
D03*
X489000D02*
D03*
X521000D02*
D03*
X549000D02*
D03*
X581000D02*
D03*
X609000D02*
D03*
D21*
X490000Y1090000D02*
D03*
X490000Y1235000D02*
D03*
X2660000D02*
D03*
Y1090000D02*
D03*
D22*
X2452500Y1560000D02*
D03*
X2377500D02*
D03*
X2652500Y2240000D02*
D03*
X2577500D02*
D03*
X2652500Y2070000D02*
D03*
X2577500D02*
D03*
X2655000Y1900000D02*
D03*
X2580000D02*
D03*
X2652500Y1730000D02*
D03*
X2577500D02*
D03*
X2652500Y1560000D02*
D03*
X2577500D02*
D03*
X2452500Y2240000D02*
D03*
X2377500D02*
D03*
X2452500Y1730000D02*
D03*
X2377500D02*
D03*
X2452500Y2070000D02*
D03*
X2377500D02*
D03*
X2452500Y1900000D02*
D03*
X2377500D02*
D03*
X1982500Y1560000D02*
D03*
X1907500D02*
D03*
X2182500Y2240000D02*
D03*
X2107500D02*
D03*
X2182500Y2070000D02*
D03*
X2107500D02*
D03*
X2185000Y1900000D02*
D03*
X2110000D02*
D03*
X2182500Y1730000D02*
D03*
X2107500D02*
D03*
X2182500Y1560000D02*
D03*
X2107500D02*
D03*
X1982500Y2240000D02*
D03*
X1907500D02*
D03*
X1982500Y1730000D02*
D03*
X1907500D02*
D03*
X1982500Y2070000D02*
D03*
X1907500D02*
D03*
X1982500Y1900000D02*
D03*
X1907500D02*
D03*
X1512500Y1560000D02*
D03*
X1437500D02*
D03*
X1712500Y2240000D02*
D03*
X1637500D02*
D03*
X1712500Y2070000D02*
D03*
X1637500D02*
D03*
X1715000Y1900000D02*
D03*
X1640000D02*
D03*
X1712500Y1730000D02*
D03*
X1637500D02*
D03*
X1712500Y1560000D02*
D03*
X1637500D02*
D03*
X1512500Y2240000D02*
D03*
X1437500D02*
D03*
X1512500Y1730000D02*
D03*
X1437500D02*
D03*
X1512500Y2070000D02*
D03*
X1437500D02*
D03*
X1512500Y1900000D02*
D03*
X1437500D02*
D03*
X1042500Y1560000D02*
D03*
X967500D02*
D03*
X1242500Y2240000D02*
D03*
X1167500D02*
D03*
X1242500Y2070000D02*
D03*
X1167500D02*
D03*
X1245000Y1900000D02*
D03*
X1170000D02*
D03*
X1242500Y1730000D02*
D03*
X1167500D02*
D03*
X1242500Y1560000D02*
D03*
X1167500D02*
D03*
X1042500Y2240000D02*
D03*
X967500D02*
D03*
X1042500Y1730000D02*
D03*
X967500D02*
D03*
X1042500Y2070000D02*
D03*
X967500D02*
D03*
X1042500Y1900000D02*
D03*
X967500D02*
D03*
X772500Y1560000D02*
D03*
X697500D02*
D03*
X772500Y1730000D02*
D03*
X697500D02*
D03*
X775000Y1900000D02*
D03*
X700000D02*
D03*
X772500Y2070000D02*
D03*
X697500D02*
D03*
X772500Y2240000D02*
D03*
X697500D02*
D03*
X572500Y1560000D02*
D03*
X497500D02*
D03*
X572500Y1730000D02*
D03*
X497500D02*
D03*
X572500Y1900000D02*
D03*
X497500D02*
D03*
X572500Y2070000D02*
D03*
X497500D02*
D03*
X572500Y2240000D02*
D03*
X497500D02*
D03*
D23*
X2515000Y1340000D02*
D03*
Y1125000D02*
D03*
X2045000Y1340000D02*
D03*
Y1125000D02*
D03*
X1575000Y1340000D02*
D03*
Y1125000D02*
D03*
X1105000Y1340000D02*
D03*
Y1125000D02*
D03*
X635000D02*
D03*
Y1340000D02*
D03*
D24*
X2515000Y1410000D02*
D03*
Y1055000D02*
D03*
X2045000Y1410000D02*
D03*
Y1055000D02*
D03*
X1575000Y1410000D02*
D03*
Y1055000D02*
D03*
X1105000Y1410000D02*
D03*
Y1055000D02*
D03*
X635000D02*
D03*
Y1410000D02*
D03*
M02*
