M48
;Layer_Color=9474304
;FILE_FORMAT=4:4
METRIC,LZ
;TYPE=PLATED
T2F00S00C1.6000
;TYPE=NON_PLATED
%
G90
G05
T02
G00X00635Y01056
M15
G01Y01054
M16
G00X00635Y01118
M15
G01Y01132
M16
G00X01105Y01118
M15
G01Y01132
M16
G00X01105Y01056
M15
G01Y01054
M16
G00X01575Y01056
M15
G01Y01054
M16
G00X01575Y01118
M15
G01Y01132
M16
G00X02045Y01118
M15
G01Y01132
M16
G00X02045Y01056
M15
G01Y01054
M16
G00X02515Y01056
M15
G01Y01054
M16
G00X02515Y01118
M15
G01Y01132
M16
G00X02458Y01305
M15
G01X02622
M16
G00X02515Y01347
M15
G01Y01333
M16
G00X02515Y01409
M15
G01Y01411
M16
G00X02455Y01308
M15
G01Y01452
M16
G00X02045Y01409
M15
G01Y01411
M16
G00X02045Y01347
M15
G01Y01333
M16
G00X01988Y01305
M15
G01X02152
M16
G00X01985Y01308
M15
G01Y01452
M16
G00X01518Y01305
M15
G01X01682
M16
G00X01575Y01347
M15
G01Y01333
M16
G00X01575Y01409
M15
G01Y01411
M16
G00X01515Y01308
M15
G01Y01452
M16
G00X01105Y01409
M15
G01Y01411
M16
G00X01105Y01347
M15
G01Y01333
M16
G00X01048Y01305
M15
G01X01212
M16
G00X01045Y01308
M15
G01Y01452
M16
G00X00635Y01409
M15
G01Y01411
M16
G00X00635Y01347
M15
G01Y01333
M16
G00X00578Y01305
M15
G01X00742
M16
G00X00575Y01308
M15
G01Y01452
M16
M17
M30
