G04*
G04 #@! TF.GenerationSoftware,Altium Limited,Altium Designer,18.1.7 (191)*
G04*
G04 Layer_Physical_Order=2*
G04 Layer_Color=16711680*
%FSLAX44Y44*%
%MOMM*%
G71*
G01*
G75*
%ADD21R,8.0000X8.0000*%
%ADD22C,2.0000*%
%ADD23O,2.4000X4.0000*%
%ADD24O,2.4000X2.6000*%
%ADD25R,16.0000X74.0000*%
%ADD26R,40.0000X12.0000*%
%ADD27R,47.5000X12.0000*%
G36*
X2715000Y1425000D02*
X2610000Y1320000D01*
Y1320000D01*
X2475000D01*
Y1430000D01*
X2565000D01*
X2635000Y1500000D01*
Y2260000D01*
X2715000D01*
Y1425000D01*
D02*
G37*
G36*
X2245000D02*
X2140000Y1320000D01*
Y1320000D01*
X2005000D01*
Y1430000D01*
X2095000D01*
X2165000Y1500000D01*
Y2260000D01*
X2245000D01*
Y1425000D01*
D02*
G37*
G36*
X1775000D02*
X1670000Y1320000D01*
Y1320000D01*
X1535000D01*
Y1430000D01*
X1625000D01*
X1695000Y1500000D01*
Y2260000D01*
X1775000D01*
Y1425000D01*
D02*
G37*
G36*
X1305000D02*
X1200000Y1320000D01*
Y1320000D01*
X1065000D01*
Y1430000D01*
X1155000D01*
X1225000Y1500000D01*
Y2260000D01*
X1305000D01*
Y1425000D01*
D02*
G37*
G36*
X835000D02*
X730000Y1320000D01*
Y1320000D01*
X595000D01*
Y1430000D01*
X685000D01*
X755000Y1500000D01*
Y2260000D01*
X835000D01*
Y1425000D01*
D02*
G37*
G36*
X2395000Y1500000D02*
X2435000Y1460000D01*
Y1290000D01*
X2650000D01*
X2715000Y1290000D01*
X2715000Y1185000D01*
X2320000Y1185000D01*
Y1185000D01*
X1850000Y1185000D01*
Y1185000D01*
X1380000Y1185000D01*
Y1185000D01*
X910000Y1185000D01*
Y1185000D01*
X435000Y1185000D01*
Y2260000D01*
X515000D01*
Y1500000D01*
X555000Y1460000D01*
Y1290000D01*
X770000D01*
X905000Y1425000D01*
Y2260000D01*
X985000D01*
Y1500000D01*
X1025000Y1460000D01*
Y1290000D01*
X1240000D01*
X1375000Y1425000D01*
X1375000Y2260000D01*
X1455000D01*
Y1500000D01*
X1495000Y1460000D01*
Y1290000D01*
X1710000D01*
X1845000Y1425000D01*
X1845000Y2260000D01*
X1925000D01*
Y1500000D01*
X1965000Y1460000D01*
Y1290000D01*
X2180000D01*
X2315000Y1425000D01*
X2315000Y2260000D01*
X2395000D01*
Y1500000D01*
D02*
G37*
G36*
X2715000Y1030000D02*
X2635000Y950000D01*
X515000Y950000D01*
X435000Y1030000D01*
Y1050000D01*
X2715000Y1050000D01*
X2715000Y1030000D01*
D02*
G37*
D21*
X490000Y1090000D02*
D03*
X490000Y1235000D02*
D03*
X2660000D02*
D03*
Y1090000D02*
D03*
D22*
X2452500Y1560000D02*
D03*
X2377500D02*
D03*
X2652500Y2240000D02*
D03*
X2577500D02*
D03*
X2652500Y2070000D02*
D03*
X2577500D02*
D03*
X2655000Y1900000D02*
D03*
X2580000D02*
D03*
X2652500Y1730000D02*
D03*
X2577500D02*
D03*
X2652500Y1560000D02*
D03*
X2577500D02*
D03*
X2452500Y2240000D02*
D03*
X2377500D02*
D03*
X2452500Y1730000D02*
D03*
X2377500D02*
D03*
X2452500Y2070000D02*
D03*
X2377500D02*
D03*
X2452500Y1900000D02*
D03*
X2377500D02*
D03*
X1982500Y1560000D02*
D03*
X1907500D02*
D03*
X2182500Y2240000D02*
D03*
X2107500D02*
D03*
X2182500Y2070000D02*
D03*
X2107500D02*
D03*
X2185000Y1900000D02*
D03*
X2110000D02*
D03*
X2182500Y1730000D02*
D03*
X2107500D02*
D03*
X2182500Y1560000D02*
D03*
X2107500D02*
D03*
X1982500Y2240000D02*
D03*
X1907500D02*
D03*
X1982500Y1730000D02*
D03*
X1907500D02*
D03*
X1982500Y2070000D02*
D03*
X1907500D02*
D03*
X1982500Y1900000D02*
D03*
X1907500D02*
D03*
X1512500Y1560000D02*
D03*
X1437500D02*
D03*
X1712500Y2240000D02*
D03*
X1637500D02*
D03*
X1712500Y2070000D02*
D03*
X1637500D02*
D03*
X1715000Y1900000D02*
D03*
X1640000D02*
D03*
X1712500Y1730000D02*
D03*
X1637500D02*
D03*
X1712500Y1560000D02*
D03*
X1637500D02*
D03*
X1512500Y2240000D02*
D03*
X1437500D02*
D03*
X1512500Y1730000D02*
D03*
X1437500D02*
D03*
X1512500Y2070000D02*
D03*
X1437500D02*
D03*
X1512500Y1900000D02*
D03*
X1437500D02*
D03*
X1042500Y1560000D02*
D03*
X967500D02*
D03*
X1242500Y2240000D02*
D03*
X1167500D02*
D03*
X1242500Y2070000D02*
D03*
X1167500D02*
D03*
X1245000Y1900000D02*
D03*
X1170000D02*
D03*
X1242500Y1730000D02*
D03*
X1167500D02*
D03*
X1242500Y1560000D02*
D03*
X1167500D02*
D03*
X1042500Y2240000D02*
D03*
X967500D02*
D03*
X1042500Y1730000D02*
D03*
X967500D02*
D03*
X1042500Y2070000D02*
D03*
X967500D02*
D03*
X1042500Y1900000D02*
D03*
X967500D02*
D03*
X772500Y1560000D02*
D03*
X697500D02*
D03*
X772500Y1730000D02*
D03*
X697500D02*
D03*
X775000Y1900000D02*
D03*
X700000D02*
D03*
X772500Y2070000D02*
D03*
X697500D02*
D03*
X772500Y2240000D02*
D03*
X697500D02*
D03*
X572500Y1560000D02*
D03*
X497500D02*
D03*
X572500Y1730000D02*
D03*
X497500D02*
D03*
X572500Y1900000D02*
D03*
X497500D02*
D03*
X572500Y2070000D02*
D03*
X497500D02*
D03*
X572500Y2240000D02*
D03*
X497500D02*
D03*
D23*
X2515000Y1340000D02*
D03*
Y1125000D02*
D03*
X2045000Y1340000D02*
D03*
Y1125000D02*
D03*
X1575000Y1340000D02*
D03*
Y1125000D02*
D03*
X1105000Y1340000D02*
D03*
Y1125000D02*
D03*
X635000D02*
D03*
Y1340000D02*
D03*
D24*
X2515000Y1410000D02*
D03*
Y1055000D02*
D03*
X2045000Y1410000D02*
D03*
Y1055000D02*
D03*
X1575000Y1410000D02*
D03*
Y1055000D02*
D03*
X1105000Y1410000D02*
D03*
Y1055000D02*
D03*
X635000D02*
D03*
Y1410000D02*
D03*
D25*
X2515000Y1890000D02*
D03*
X2045000D02*
D03*
X1575000D02*
D03*
X1105000D02*
D03*
X635000D02*
D03*
D26*
X2515000Y1090000D02*
D03*
D27*
X2082500D02*
D03*
X1612500D02*
D03*
X1142500D02*
D03*
X672500D02*
D03*
M02*
